<?xml version="1.0" encoding="utf-8"?>
<!-- Generator: Adobe Illustrator 27.9.0, SVG Export Plug-In . SVG Version: 6.00 Build 0)  -->
<svg version="1.1" id="Layer_1" xmlns="http://www.w3.org/2000/svg" xmlns:xlink="http://www.w3.org/1999/xlink" x="0px" y="0px"
	 viewBox="0 0 1400 651.19" style="enable-background:new 0 0 1400 651.19;" xml:space="preserve">
<style type="text/css">
	.st0{fill:#FFFFFF;}
</style>
<path class="st0" d="M325.86,16.56c0,0,4.36-8.41,10.94-9.09l-12.41-0.03L325.86,16.56z"/>
<g>
	<path d="M903.19,16.57c-5.02,0-9.3,3.65-10.1,8.61l-27.17,169.04c0,0,1.43-0.05,3.98-0.05c9.3,0,33.53,0.62,57.75,6.42
		L913.39,25.97C912.95,20.66,908.52,16.57,903.19,16.57z M870.62,190.17l26.42-164.36c0.49-3.04,3.07-5.24,6.15-5.24
		c3.22,0,5.95,2.51,6.21,5.72l13.82,169.2C901.06,190.84,879.81,190.2,870.62,190.17z"/>
	<path d="M364.35,20.6c-3.19-4.57-7.75-8.8-13.13-11.43c-2.14-1.04-4.4-1.84-6.78-2.29c-1.49-0.29-3.03-0.44-4.6-0.44
		c-2.84,0-5.33,0.65-7.48,1.67c-1.22,0.58-2.33,1.27-3.34,2.03c-4.14,3.1-6.52,7.27-7.36,8.94
		c-11.06,23.15-28.05,79.38-36.33,181.51h-9.45c0,0,30.94-184.02-49.1-184.02c-56.2,0-82.61,65.44-82.61,237.83
		c0,143.05,24.33,221.93,70.21,221.93c3.06,0,6.23-0.36,9.48-1.06c55.58-12.09,74.18-141.11,95.55-247.31h7.58
		c0,0-21.15,115.49-16.57,180.75c2.84-1.09,9.74-3.78,10.17-3.93c10.56-3.75,20.58-25.09,20.94-44.07c0.01-0.57,0.03-1.13,0.04-1.7
		c1.46-0.39,2.92-0.78,4.38-1.17l-0.03,1.68c-0.31,17.2,7.25,29.73,16.59,29.73c1.03,0,2.08-0.15,3.15-0.47
		c0.44-0.13,9.73-2.2,13.15-2.98c1.44-12.64,2.38-28.48,2.38-48.34V100.78C381.19,100.78,381.27,47.2,364.35,20.6z M377.19,337.46
		c0,16.88-0.69,32.03-2.05,45.07c-1.03,0.23-2.17,0.49-3.31,0.75c-5.8,1.3-6.96,1.57-7.27,1.65c-0.72,0.22-1.39,0.32-2.05,0.32
		c-2.01,0-3.95-0.94-5.78-2.8c-4.37-4.46-6.98-13.22-6.81-22.86l0.01-0.47l0.02-1.2l0.12-5.33l-5.15,1.38
		c-1.47,0.39-2.93,0.79-4.4,1.18l-2.9,0.79l-0.05,3.01l-0.02,1.13l-0.01,0.56c-0.37,18.89-10.3,37.54-18.29,40.38
		c-0.24,0.08-1.41,0.53-5.16,1.98c-3.03-64.83,16.63-173.21,16.84-174.32l0.86-4.72h-15.65l-0.65,3.21
		c-2.3,11.43-4.62,23.37-6.85,34.91c-9.44,48.67-19.2,98.99-32.71,138.27c-14.9,43.28-32.2,66.5-52.92,71.01
		c-2.95,0.64-5.86,0.97-8.63,0.97c-20.81,0-37.12-18.35-48.49-54.52c-11.76-37.41-17.72-92.38-17.72-163.41
		c0-85.18,6.54-144.78,19.99-182.21c12.66-35.22,31.29-51.62,58.62-51.62c12.18,0,21.91,4.51,29.75,13.77
		c35.65,42.14,15.61,164.36,15.41,165.59l-0.78,4.66h17.86l0.3-3.68c6.53-80.58,18.58-133.69,27.55-159.39
		c2.42-6.94,4.75-12.68,6.88-17.42c0,0,0.62-1.66,1.54-3.32c2.16-3.88,6.68-9.78,14.29-9.78c10.39,0,18.33,5.7,23.97,16.19
		c0.19,0.36,0.38,0.73,0.57,1.1c0.32,0.61,0.62,1.23,0.92,1.88c13.68,29.1,12.15,77.49,12.15,77.49V337.46z"/>
	<path d="M476.92,172.38c0.74-0.49,1.37-0.93,1.84-1.26c0.08-0.06,0.16-0.12,0.24-0.17c0.58-0.41,0.94-0.69,0.94-0.69h-0.02
		c15.68-11.7,31.95-34.33,31.95-73.44c0-63.98-25-80.24-58.92-80.24c-24.31,0-25.89,28.2-25.97,33.56v139.38
		c1.13,0.05,2.24,0.08,3.33,0.08c22.89,0,37.62-11.36,45.75-16.66C476.34,172.76,476.63,172.57,476.92,172.38z M473.89,169.58
		c-0.76,0.49-1.55,1.02-2.39,1.59c-7.97,5.34-21.25,14.23-40.52,14.43V50.17c0.04-2.28,0.4-10.13,3.55-17.2
		c3.72-8.34,9.75-12.4,18.42-12.4c17.96,0,30.4,4.69,39.16,14.75c10.6,12.19,15.76,32.31,15.76,61.49c0,17.21-3.25,32.42-9.67,45.21
		c-5.11,10.19-12.07,18.61-20.67,25.03l-1.07,0.8l-0.01,0.01c-0.44,0.31-1.05,0.73-1.75,1.2
		C474.44,169.22,474.17,169.4,473.89,169.58z"/>
	<path d="M1347.3,554.37c-13.87-33.52-24.92-70.35-32.84-109.46c-9.91-48.92-14.93-101.57-14.93-156.51v-43.38
		c0-46.17,3.7-87.23,11.01-122.03c5.84-27.78,13.96-51.63,24.15-70.91c17.25-32.63,34.67-40.87,34.84-40.95l16.72-7.64l-18.36-0.01
		c-20.17,0-165.69-0.04-165.69-0.04h-3.65l-0.33,3.63l-20.61,224.17L1154.33,7.03l-0.37-3.59H547.41l19.56,7.72
		c29.39,11.6,34.49,61.59,35.31,82.64v220.4c-0.16,9.1-0.75,17.56-1.77,25.2l-3.14,0.04h-0.08c-0.08,0-0.15,0.01-0.22,0.01
		c-2.77,0-5.07-1.74-6.52-3.19c-3.85-3.89-6.22-10.34-6.17-16.84v-0.37l0.01-0.78l0.04-4.23l-4.23,0.2
		c-1.24,0.05-2.48,0.12-3.72,0.18l-3.75,0.2l-0.03,3.77v0.14l-0.01,1c-0.08,9.7-6.09,21.47-13.74,22.13
		c-0.22,0.02-1.43,0.17-10.02,1.22c-2.3,0.29-4.57,0.56-6.28,0.77c-28.38-48.87-58.41-127.87-65.73-147.59
		c24.23-4.08,44.11-12.34,59.15-24.56c20.82-16.92,31.38-40.81,31.38-71.03c0-21.43-5-39.83-14.86-54.67
		c-8.08-12.16-19.42-21.97-33.71-29.13c-24.5-12.29-50.31-13.25-57.63-13.25c-0.82,0-1.35,0.01-1.54,0.02H341.62l0.02-0.02
		l-9.32,0.02H23.83l8.09,7.02c10.05,8.72,28.76,24.94,43.39,62.71c16.28,42.02,24.54,102.71,24.54,180.38v47.65
		c0,55.41-5.03,107.68-14.95,155.37c-7.93,38.12-18.99,73.41-32.86,104.88c-23.61,53.57-47.53,77.82-47.77,78.06l5.56,5.75
		c32.13-29.99,68.62-58.75,108.46-85.49c31.89-21.41,65.99-41.58,101.35-59.94c60.23-31.29,103.79-46.68,104.23-46.83l6.51-2.28
		l-5.22-4.52c-3.39-2.93-7.79-10.44-9.99-29.48l1.11-0.43c2.29-0.89,5.12-1.99,5.54-2.14c0.76-0.26,1.52-0.39,2.24-0.39
		c4.46,0,8.64,5.14,10.66,13.11c0.59,2.31,0.91,4.89,1.01,8.12c1.44,47.05,1.81,155.9,1.96,196.88c0.01,4.4,0.02,7.96,0.03,10.48
		l0.02,3.99h10.71V437.42c0.42-19.55,10.95-38.18,19.29-39.72l0.08-0.01l0.07-0.02c0.05-0.01,2.6-0.59,5.43-1.23
		c-4.78,29.4-12.77,35.37-12.79,35.37c-1.69,1.58-5.34,3.84-5.34,3.84l2.29,4.84c53.84-18.52,99.06-28.54,99.44-28.62l11.11-2.33
		l-10.11-5.15c-14.4-7.34-20.98-29.2-23.96-46.25c-3.34-19.12-2.99-36.65-2.98-36.82V219.21l42.53,108.14l0.01,0.04l0.01,0.03
		c17.4,41.97,12.32,71.93,12.27,72.22l-1.05,5.86l5.82-1.23c35.2-7.51,72.3-12.62,81.77-13.87l0.89,170.06l0.02,3.98h11.05
		l0.02-3.98c0.02-5.34,0-17.63-0.02-33.2c-0.04-41.29-0.12-104.73,0.32-138.41l3.31-0.42c0.92-0.09,2.11-0.22,3.58-0.37
		c13.97-1.48,56.48-5.97,108.05-5.97c49.35,0,83.7,3.37,84.04,3.4l6.85,0.69l-2.8-6.29c-0.04-0.1-4.41-10.09-8.51-28.75
		c5.5,0.37,10.83,8.65,11.97,18.66c0.92,19.11,0.82,105.69,0.76,157.46c-0.02,15.57-0.04,27.86-0.01,33.2l0.01,3.98h11.33l0.02-3.98
		l0.91-172.76l4.24,0.43c28.23,2.93,62.93,9.01,63.27,9.07l7.95,1.4l-0.15,0.05l14.89,2.72c0.58,0.11,58.42,10.78,116.41,29.43
		l10.09,3.25v212.29h10.71l0.01-3.99c0.01-2.71,0.03-6.71,0.04-11.75c0.14-39.8,0.47-140.38,1.64-192.39l8.65,2.65
		c31.83,10.47,80.94,31.72,81.36,31.91l3.02-6.08c-12.52-5.87-22.33-17.91-28.4-30.71c-5.13-10.82-9.24-24.38-12.2-40.31
		c-5.26-28.36-5.42-55.74-5.47-64.74V29.02c0-4.66,3.79-8.45,8.44-8.45c4.26,0,7.86,3.19,8.39,7.42l64.83,526.46l4.5,36.47
		l3.46-36.58l5.39-56.95l0.07-0.8l0.25-2.64l0.03-0.34l43.62-460.98c0.65-6.87,6.35-12.06,13.25-12.06
		c7.34,0,13.31,5.97,13.31,13.31v290.93c-0.34,23.96-2.01,69.9-9.3,108.62c-5.68,30.19-16.79,66.17-37.46,66.17
		c-0.87,0-1.73-0.05-2.63-0.18l-11.32-1.52l-1.56,3.7l10.54,5.35c0.24,0.13,24.92,12.73,61.18,35.99
		c33.44,21.46,83.86,56.63,134.16,102.36l5.71-5.58C1394.81,639.44,1370.9,611.42,1347.3,554.37z M995.78,11.15
		c8.2-3.27,17.33-3.29,25.54-0.05l0.14,0.06c30.01,11.84,34.74,63.2,35.38,84.79v254.84c0,16.54-0.76,31.08-2.28,43.33
		c-3.75-1.64-4.29-1.87-4.58-1.96c-7.94-2.83-17.88-21.47-18.24-40.37l-0.01-0.55l-0.02-1.14l-0.05-3.01l-2.91-0.78
		c-1.46-0.4-2.93-0.79-4.39-1.18l-5.14-1.38l0.1,5.32l0.03,1.68c0.18,9.64-2.43,18.4-6.81,22.85c-1.82,1.86-3.77,2.8-5.78,2.8
		c-0.65,0-1.33-0.1-2.01-0.3c-0.35-0.1-4.24-1.26-7.36-2.2l-2.44-0.73c-4.48-19.76-7.86-43.36-10.05-70.18L968.22,85.52
		C963.27,24.85,995.46,11.28,995.78,11.15L995.78,11.15z M792.07,318.27l0.01,0.78v0.36c0.05,6.51-2.32,12.96-6.18,16.85
		c-1.44,1.45-3.74,3.19-6.51,3.19c-0.07,0-0.15-0.01-0.22-0.01l-2.34-0.05c-4.81-27.53-8.34-71.32,0.29-128.41l0.58-3.83l-3.81-0.7
		l-5.7-1.06l-4.07-0.75l-0.62,4.09c-0.15,1.02-15.75,102.82-46.94,143.61c-5.29,6.91-13.32,10.87-22.04,10.87
		c-11.51,0-21.73-6.79-26.03-17.3c-17.41-42.5-14.22-122.25-14.19-123.05v-0.18c0-0.27-0.02-22.54-0.01-32.44
		c13.69,0.58,23.52,5.39,30.02,14.67c22.36,31.95-3.82,104.81-4.08,105.54l-1.96,5.37l5.71,0.01h7.33l0.87-2.83l62.28-203.25
		l1.58-5.17h-11.67l-1.09,2.29c-13.09,27.71-30.1,47.02-50.57,57.42c-16.5,8.38-31.52,8.88-38.23,8.91
		c0.03-1.82,0.05-3.75,0.08-5.77c0.35-24.65,0.87-61.91,6.24-93.17c6.11-35.63,16.77-53.69,31.68-53.69
		c18.31,0,33.12,9.37,45.29,28.64c11.45,18.14,20.68,44.62,29.02,83.35l0.69,3.17l3.25-0.01l4.56-0.03l4.68-0.03l-0.76-4.62
		c-0.04-0.26-4.21-25.89-4.17-53.67c0.05-32.78,5.78-54.84,16.61-64.3c0.76-0.56,11.65-8.03,38.78-2.81l4.74,1
		c0.81,0.19,1.63,0.38,2.46,0.59c14.8,4.05,23.84,16.97,26.85,38.48c2.47,17.57-0.16,34.15-0.27,34.84l-0.01,0.02v0.01l-0.01,0.09
		v0.01L828.44,308c-2,12.42-4.34,23.84-6.97,34.01c-2.08-0.18-3.82-0.33-4-0.35c-6.25-0.54-13.61-10.32-13.7-22.12l-0.01-1.16
		l-0.04-3.76l-3.75-0.2c-1.24-0.06-2.48-0.13-3.72-0.18l-4.22-0.2L792.07,318.27z M584.75,380.57c0.09-4.59,0.19-8.26,0.31-10.77
		c1.15-10.11,6.7-18.46,12.42-18.67l1-0.01C594.02,371.51,586.98,378.73,584.75,380.57z M805.76,381.52l-1.61,1.82l0.05-9.23v-0.05
		l-0.01-0.56v-0.57c-0.02-2.37,0.32-4.83,1.01-7.29l0.54-1.94c0.62-1.73,1.85-4.48,3.97-6.79l0.69-0.66c1.34-1.32,3.47-2.9,5.97-2.9
		c0.17,0,0.33,0,0.5,0.02c0.08,0,0.58,0.05,1.34,0.11C811.65,374.46,805.82,381.45,805.76,381.52z M893.73,393.66l-8.46,2.95
		l-10.82-6.75c-10.08-6.28-16.36-21-18.66-43.74c-2.26-22.33-0.28-48.1,1.42-65.54v-0.09l0.01-0.04c0.76-7.83,1.72-16.04,2.94-25.11
		l1.57-9.78l0.01-0.04v-0.04c1.87-13.21,3.72-24.94,5.52-34.92c1.55-0.05,3.65-0.1,6.2-0.1c10.36,0,30.5,0.84,51.71,6.33
		c0.49,7.1,1.75,26.35,2.24,43.68l0.01,0.21l0.01,0.07v0.22c0.18,6.46,0.23,11.99,0.16,16.54h-0.04l-0.08,4.41
		C926.34,348.64,914.99,386.24,893.73,393.66z M1020.83,429.54c-6.13-5.47-11.04-12.16-14.37-19.67
		c-2.37-5.35-5.05-12.49-7.73-21.87c0.48,0.15,0.92,0.29,1.28,0.4l0.02,0.02l1.06,0.33c10.49,3.23,19.34,21.09,19.74,39.83V429.54z
		 M1033.31,434.85c0.08-3.11,0.16-6.02,0.24-8.7c0.1-3.23,0.42-5.81,1-8.13c2.02-7.96,6.21-13.11,10.67-13.11
		c0.7,0,1.44,0.13,2.19,0.38c0.5,0.2,2.75,1.18,5.03,2.18c-1.3,6.47-2.76,11.36-4.17,15.05
		C1045.8,428.96,1040.09,433.6,1033.31,434.85z M1195.81,503.39c1.08,0.14,2.13,0.21,3.16,0.21c43.46,0,50-125.57,50.76-178.76
		V33.88c0-9.56-7.75-17.31-17.31-17.31c-8.93,0-16.39,6.79-17.23,15.68l-49.37,521.72L1100.99,27.5
		c-0.77-6.24-6.07-10.93-12.36-10.93c-6.87,0-12.44,5.57-12.44,12.45V330.2c0.09,15.38,0,112.23,42.1,136.01
		c-1.31-0.57-45.41-19.22-77.28-29.7c0,0,11.43-1.08,15.95-31.43c-3.69-1.61-7.88-3.45-8.18-3.55c-1.21-0.42-2.4-0.62-3.56-0.62
		c-6.45,0-12.01,6.14-14.55,16.13c-0.74,2.94-1.03,5.95-1.12,8.98c-1.6,52.29-1.89,190.82-2,216.32h-2.72v-213.8
		c-0.42-19.91-9.78-39.68-22.56-43.61c-0.05-0.05-5.84-1.82-9.3-2.88c9.12,35.67,18.99,44.94,18.99,44.94
		c-58.92-18.95-116.91-29.55-116.91-29.55c29.44-10.28,35.61-67.86,36.42-115.45c0.11-2.57,0.15-5.45,0.15-8.53
		c0-3.92-0.07-8.18-0.19-12.55c0-0.09,0-0.18-0.01-0.27c0-0.1,0-0.19-0.01-0.28c-0.62-21.99-2.45-46.7-2.45-46.7
		c-22.29-6.17-43.66-7.2-55.5-7.2c-6,0-9.56,0.26-9.56,0.26c-2.29,12.31-4.39,26-6.12,38.2l-1.58,9.83
		c-1,7.47-2.07,16.09-2.96,25.31c-0.01,0.09-0.02,0.13-0.02,0.13c-1.33,13.75-2.44,28.98-2.44,43.79c0,30.24,4.64,58.73,21.55,69.28
		c0,0-34.85-6.13-63.55-9.11c0,0,7.11-8.04,14.67-34.22c-2.93-0.26-6.01-0.53-6.25-0.55c-0.28-0.02-0.55-0.03-0.83-0.03
		c-3.18,0-6.21,1.52-8.78,4.05l-0.02-0.02c-4.84,4.68-6.27,11.17-6.27,11.17l0.05,0.01c-0.74,2.64-1.18,5.47-1.16,8.4
		c0,0.38,0.01,0.76,0.01,1.13l-0.98,186.35h-3.36c-0.1-22.48,0.46-166.12-0.76-190.96c-1.3-11.74-7.78-22.1-16.04-22.35l-4.84,0.02
		c4.51,22.52,9.78,34.36,9.78,34.36s-34.29-3.42-84.44-3.42c-60.66,0-107.86,6.09-113.56,6.5c0,0,11.71-6.18,17.35-37.49l-5.95,0.03
		c-8.26,0.25-15.03,10.61-16.33,22.35c-1.22,24.84-0.66,168.48-0.75,190.96h-3.09l-0.97-186.35c0-0.37,0-0.75,0.01-1.13
		c0.02-2.93-0.42-5.76-1.16-8.4l0.04-0.01c0,0-1.42-6.49-6.26-11.17l-0.02,0.02c-2.57-2.53-5.6-4.05-8.78-4.05
		c-0.28,0-0.56,0.01-0.83,0.03c-0.35,0.03-11.56,1.42-16.64,2.04c11.36,18.66,22.37,32.1,31.53,34.71c0,0-43.21,5.43-84.41,14.23
		c0,0,5.61-30.73-12.51-74.47L426.98,198.1v123.13c0,0-1.66,71.04,29.12,86.72c0,0-38.55,8.07-93.29,26.89
		c0.3-0.16,10.18-5.63,15.33-43.62c-3.56,0.83-11.13,2.55-11.13,2.55c-11.43,2.11-22.15,23.7-22.56,43.61v204.96h-2.73
		c-0.1-25.5-0.39-155.19-1.99-207.47c-0.1-3.03-0.38-6.05-1.13-8.99c-2.53-9.99-8.09-16.12-14.54-16.12c-1.16,0-2.36,0.2-3.57,0.61
		c-0.4,0.15-6.53,2.53-9.62,3.72c1.63,16.76,5.22,29.55,11.67,35.14c0,0-173.74,60.88-315.37,193.04
		c2.93-2.98,96.68-100.08,96.68-341.07v-47.65c0-179.49-43.05-223.34-69.3-246.11c0,0,150.65,0,282.88,0l49-0.02v0.02h93.35
		c0,0,0.51-0.02,1.47-0.02c12.63,0,102.2,3.17,102.2,93.05c0,64.06-49.07,86.28-91.98,92.39c0,0,35.65,98.56,69.06,155.08
		c2.53-0.3,18.35-2.26,18.77-2.29c9-0.78,17.29-13.09,17.39-26.08c0-0.39,0-0.77,0.01-1.15c1.23-0.07,2.46-0.13,3.69-0.19
		c-0.01,0.39-0.01,0.77-0.01,1.16c-0.1,12.83,7.8,24.06,16.69,24.06c0.11,0,0.23-0.01,0.35-0.01l6.56-0.08
		c1.25-8.09,2.1-17.71,2.3-29.12V93.72c-0.96-24.63-6.8-74.03-37.84-86.28c0,0,23.63,0,65.64,0h158.46
		c-34.3,21.06-17.28,124.25-17.28,124.25l-4.56,0.03c-15.56-72.19-37.16-115.15-78.22-115.15c-42.69,0-41.23,117.14-42.07,160.63
		c0.83,0,1.79,0.01,2.88,0.01c16.58,0,62.16-2.06,93.61-68.63h3.73l-62.27,203.25h-4.38c0,0,45.86-125.64-32.51-125.64
		c-0.39,0-0.78,0-1.17,0.01c-0.04,4.9,0,36.48,0,36.48s-3.47,80.92,14.49,124.74c5.27,12.89,17.45,19.79,29.73,19.79
		c9.36,0,18.77-4.01,25.21-12.44c32.19-42.09,47.73-145.44,47.73-145.44l5.7,1.05c-8.9,58.86-5.1,103.87,0.32,132.93l5.56,0.13
		c0.12,0,0.23,0.01,0.35,0.01c8.89,0,16.79-11.23,16.69-24.06c0-0.39-0.01-0.77-0.01-1.16c1.23,0.06,2.46,0.12,3.69,0.19
		c0,0.38,0.01,0.76,0.01,1.15c0.1,12.99,8.38,25.3,17.39,26.08c0.26,0.02,4.11,0.35,7.31,0.63c2.72-9.99,5.46-22.38,7.92-37.64
		l35.76-222.82c0-0.02,11.46-69.25-31.73-78.38H994.3c0,0-35.31,14.09-30.07,78.38l16.68,217.5c2.56,31.39,6.47,55.15,10.67,73.02
		c3.21,0.96,11.6,3.47,12.04,3.6c1.06,0.31,2.11,0.46,3.14,0.46c9.34,0,16.91-12.53,16.59-29.72c-0.01-0.56-0.02-1.13-0.03-1.69
		c1.46,0.39,2.93,0.79,4.39,1.18c0.01,0.57,0.02,1.13,0.03,1.7c0.36,18.98,10.39,40.32,20.95,44.07c0.32,0.11,5.23,2.26,9.12,3.96
		c1.81-12.08,3.03-28.03,3.03-49.11V95.89c-0.7-23.77-5.94-75.83-37.91-88.45h127.42l27.5,264.86L1202.2,7.44
		c0,0,145.52,0.04,165.69,0.04c0,0-72.36,32-72.36,237.54v43.38c0,240.65,95,352.19,96.48,353.92
		C1294.18,553.38,1195.81,503.39,1195.81,503.39z M572.29,381.01c-4.9-2.75-12.31-9.8-22.96-26.39c0.3-0.03,0.61-0.07,0.91-0.11
		c4.14-0.51,8.82-1.08,9.39-1.15c0.15-0.01,0.3-0.01,0.46-0.01c2.5,0,4.63,1.58,5.97,2.9l0.76,0.74c2.2,2.44,3.43,5.34,4.01,7.02
		l0.43,1.63c0.69,2.46,1.03,4.92,1.01,7.29l-0.01,0.32v0.82L572.29,381.01z"/>
</g>
</svg>
