<?xml version="1.0" encoding="UTF-8"?>
<svg id="Layer_2" data-name="Layer 2" xmlns="http://www.w3.org/2000/svg" viewBox="0 0 401.53 481.68">
  <defs>
    <style>
      .cls-1 {
        fill: none;
        stroke: #000;
        stroke-miterlimit: 10;
        stroke-width: 23px;
      }
    </style>
  </defs>
  <g id="Layer_2-2" data-name="Layer 2">
    <path class="cls-1" d="m180.69,11.5h34.38c-.14,3.57,0,31.33,0,37.46,0,40.56,2.56,86.37,18.61,98.38,21.7,16.24,72.01,16.05,136.37,17.47,8.35.18,15.26.11,19.98,0v29.95c-4.62-.07-11.29,0-19.33,0-46.96,0-118.29-3-139.12,15.91-19.14,17.38-15.21,54.07-16.46,111.61-.15,7.02-.09,92.83,0,96.75v51.15h-34.44v-50.54c.08-3.95.14-89.74,0-96.72-1.24-59.86,6.42-96.98-10.8-114.2-20.02-20.02-97.48-13.91-142.32-13.91-8.42,0-11.37-.09-16.06,0v-30.02c4.11.04,6.45.08,14.17,0,68.59-.7,119.48,2.23,141.25-17.59,14.8-13.48,13.39-57.57,13.39-96.24,0-11.03.38-33.62.38-39.47Z"/>
  </g>
</svg>