<?xml version="1.0" encoding="UTF-8"?>
<svg id="Layer_2" data-name="Layer 2" xmlns="http://www.w3.org/2000/svg" viewBox="0 0 525.16 524.66">
  <defs>
    <style>
      .cls-1 {
        fill: #fff;
      }
    </style>
  </defs>
  <g id="Layer_3" data-name="Layer 3">
    <g>
      <path d="m517.91,143.33v237.99c0,75.3-61.04,136.34-136.33,136.34h-237.99c-75.3,0-136.34-61.04-136.34-136.34v-237.99C7.25,68.04,68.29,7,143.59,7h237.99c75.29,0,136.33,61.04,136.33,136.33Z"/>
      <g>
        <path class="cls-1" d="m256.16,521.16v-3.5c0-208.67-4.38-278.02-31.76-305.41-36.69-36.69-96.74-39.68-165.67-39.68-6.1,0-12.25.02-18.45.04-6.31.02-12.66.05-19.05.05-3.77,0-5.99-.02-7.65-.03-.98,0-1.75-.01-2.55-.01-1.05,0-2.12,0-3.71.04h-3.81s0-11.37,0-11.37h3.75c1.46.02,2.57.02,3.73.02.92,0,1.87,0,3.02,0,1.77,0,4.01-.01,7.34-.01,8.43,0,16.78.03,25.01.07,7.99.03,15.87.06,23.61.06,66.36,0,123.41-2.11,149.38-28.08s36.01-49.52,37-126.4l.04-3.46h12.18l.06,3.44c1.26,75.88,13.83,102.11,38.13,126.41,26.15,26.15,70.94,28.1,136.3,28.1,7.47,0,15.23-.03,23.28-.06,8.7-.03,17.73-.07,27.12-.07,3.07,0,6.31.01,9.45.03,2.94.01,5.8.02,8.34.02,2.95,0,5.05-.01,6.61-.05h3.82s0,11.29,0,11.29h-3.75c-1.75-.02-4.11-.03-6.82-.03s-5.72,0-8.79.02c-3.15,0-6.34.02-9.25.02-48.79,0-88.53.47-118.91,6.33-29.11,5.62-49.66,16.15-68.74,35.23-27.67,27.66-36.55,101.41-36.55,303.49v3.5h-12.69Z"/>
        <path class="cls-1" d="m265.11,7c1.27,76.33,13.77,103.44,39.15,128.83,26.65,26.65,70.92,29.13,138.78,29.13,15.54,0,32.32-.13,50.4-.13,5.95,0,12.52.05,17.79.05,2.63,0,4.94-.01,6.68-.05h.25v4.29h-.25c-1.71-.02-4.09-.03-6.82-.03-5.45,0-12.31.03-18.04.03-105.09,0-150.39,2.85-190.12,42.58-27.85,27.84-37.58,95.8-37.58,305.96h-5.69c0-204.96-3.79-278.88-32.79-307.88-37.84-37.84-99.27-40.7-168.14-40.7-12.3,0-24.83.09-37.51.09-6.01,0-8.06-.04-10.19-.04-1.07,0-2.16,0-3.78.04h-.25v-4.37h.25c1.43.02,2.56.02,3.73.02,2.34,0,4.87-.02,10.36-.02,16.62,0,32.91.13,48.62.13,68.05,0,125.24-2.49,151.85-29.1s37.01-49.73,38.02-128.83h5.28m6.88-7h-19.08l-.09,6.91c-1.03,80.34-12.29,100.29-35.97,123.97-11.11,11.11-29.59,18.49-56.48,22.56-24.68,3.73-54,4.49-90.42,4.49-7.73,0-15.43-.03-23.59-.07-8.15-.03-16.58-.07-25.02-.07-3.33,0-5.58,0-7.35.01-1.14,0-2.09,0-3.01,0-1.15,0-2.25,0-3.65-.02h-.04s-.04,0-.04,0H0v18.37h7.38c1.49-.03,2.54-.04,3.65-.04.78,0,1.55,0,2.52.01,1.66.01,3.89.03,7.67.03,6.4,0,12.84-.02,19.07-.05,6.07-.02,12.35-.05,18.44-.05,68.14,0,127.45,2.91,163.19,38.65,13.36,13.36,20.91,38.38,25.25,83.67,4.57,47.7,5.49,119.26,5.49,219.26v7h19.69v-7c0-200.98,8.63-274.12,35.53-301.01,18.54-18.54,38.56-28.79,66.93-34.27,30.07-5.8,69.64-6.26,118.24-6.26,2.91,0,6.1,0,9.26-.02,3.07,0,6.09-.02,8.78-.02,3.02,0,5.22,0,6.72.03h.05s.05,0,.05,0h7.25v-18.29h-7.4c-1.53.03-3.61.05-6.53.05-2.54,0-5.39-.01-8.33-.02-3.14-.01-6.38-.03-9.46-.03-9.4,0-18.42.04-27.14.07-8.13.03-15.8.06-23.27.06-64.48,0-108.63-1.88-133.83-27.08-13.62-13.63-21.42-25.96-26.92-42.56-6.34-19.14-9.57-45.01-10.18-81.43l-.11-6.88h0Z"/>
      </g>
    </g>
  </g>
</svg>